<?xml version="1.0" encoding="UTF-8"?>
<svg xmlns="http://www.w3.org/2000/svg" xmlns:xlink="http://www.w3.org/1999/xlink" viewBox="0 0 326.49 291.55">
  <defs>
    <style>
      .cls-1, .cls-2, .cls-3, .cls-4, .cls-5, .cls-6 {
        fill: none;
      }

      .cls-2 {
        stroke-linecap: round;
      }

      .cls-2, .cls-4, .cls-5 {
        stroke-linejoin: round;
      }

      .cls-2, .cls-4, .cls-6 {
        stroke: #231f20;
        stroke-width: 41px;
      }

      .cls-3, .cls-5 {
        stroke: #fff;
        stroke-width: 14px;
      }

      .cls-3, .cls-6 {
        stroke-miterlimit: 10;
      }

      .cls-7 {
        fill: #231f20;
      }
    </style>
    <clipPath id="clippath">
      <rect class="cls-1" x="-2142.2" y="-176.6" width="2302.77" height="2448.12" transform="translate(-994.64 -394.37) rotate(-43.56)"/>
    </clipPath>
  </defs>
  <g id="Layer_6" data-name="Layer 6">
    <path class="cls-7" d="M159.9,40.67c-3.7,5.81-3.2,12.47-2.34,19.81,2.61,22.11,5.57,25.24,2.73,31.81-2.15,4.98-7.02,10.53-12.9,10.91-4.45.29-7.94-2.48-8.92-3.28-12.7-10.34-.42-32.65-12.49-44.29-5.09-4.91-13.68-7.11-19.4-4.15-5.27,2.73-8.02,9.78-7.82,15.83.54,16.48,22.91,23.14,20.72,35.77-.77,4.47-4.24,7.43-6.06,8.98-5.44,4.65-12.73,5.66-22.67,4.76-7.41-.67-21.08-2.83-49.12-15.74-12.92-5.95-18.13-9.22-25.49-7.36-6.09,1.54-13.67,6.59-14.96,14.52-1.45,8.95,6.05,15.79,6.66,16.34,3.55,3.14,8.31,5.05,28.36,4.85,16.5-.17,26.2-1.6,41.87.55,9.14,1.25,13.51,2.79,15.41,6.47,2.39,4.62.64,12.2-3.85,15.44-5.62,4.06-12.96-.54-19.92,4.73-.81.62-2.05,1.69-2.7,3.44-1.19,3.21.15,7.38,2.95,9.38,1.28.92,2.67,1.24,3.82,1.34,7.65.72,10.63-7.32,19.88-8.44,1.5-.18,6.26-.76,8.73,2.09,2.24,2.58,1.44,6.56,1.24,7.14-1.94,5.66-7.49,9.13-12.67,12.12-11.95,6.91-12.46,9.85-12.79,12.02-.64,4.21,2.3,9.36,6.26,10.54,2.59.77,4.95-.35,7.49-1.61,6.27-3.11,7.71-6.75,15.54-13.61,2.11-1.85,4.39-3.78,7.17-4.19,6.84-1.02,11.29,7.43,11.22,14.34-.14,13.62-8.86,25.74-18.94,34.91s-21.85,16.44-31.22,26.33c-2.22,2.34-7.34,7.2-8.11,14.47-.18,1.73-.71,6.74,2.58,10.59,4.44,5.2,12.13,4,12.98,3.85,5.94-1.02,9.77-5.37,11.53-7.47,12.96-15.45,24.77-41.34,39.07-59.97,2.13-2.77,5.68-6.69,9.9-6.83,6.02-.21,9.98,6.71,9.9,12.73-.08,6.02-2.67,11.75-3.15,17.75-.48,6,2.33,13.19,8.26,14.19,6.81,1.16,11.97-6.71,12.15-13.61s-2.52-13.68-2.06-20.57c.46-6.89,6.43-14.4,13.05-12.42,2.86.86,4.98,3.29,6.54,5.84,4.44,7.26,5.57,15.98,7.85,24.18,1.87,6.73,5.63,16.65,14.17,20.22,1.06.44,5.97,2.49,10.83.42,4.23-1.8,7.21-6.19,8.02-10.43,1.41-7.35-4.86-16.85-17.46-35.57-1.93-2.87-4.01-6.9-3.93-11.81.07-4.2,3.07-8.66,7.27-8.79,6.76-.21,9.45,9.54,15.86,11.72,6.29,2.14,12.87-6.65,9.05-12.08-1.35-1.93-3.48-3.15-5.2-4.75-7.85-7.29-5.25-21.43,3.06-28.19,8.96-7.28,21.2-6.79,30.64-5.66,11.05,1.32,12.41,4.37,31.19,7.72,8.82,1.58,16.95,2.41,21.48-2.06,2.51-2.47,3.21-5.75,3.21-5.75.99-4.61-1.4-8.38-1.91-9.19-3.13-4.93-9-6.5-13.42-7.36-11.51-2.23-20.01-.95-34.68.45-23.46,2.23-31.18,1.77-34.78-3.07-.49-.66-2.22-3.17-2.03-6.34.25-4.16,3.62-6.21,11.21-14.07,7.01-7.26,7.16-8.94,7.46-10.1,1.6-6.01-4.46-12.63-10.59-11.58-9.01,1.55-11.76,14.73-20.56,17.19-5.97,1.67-12.41-2.82-14.55-8.65-2.14-5.82-.83-12.39,1.63-18.08,4.77-11.02,13.48-19.74,21.47-28.71s15.69-18.99,17.61-30.85c1.93-11.85-3.92-25.76-15.46-29.06-12.84-3.67-25.59,6.89-32.09,18.55-15.98,28.67-14.08,75.24-21.81,83.23-.79.81-2.97,3.07-5.64,2.85-2.54-.21-4.24-2.58-4.8-3.36-4.54-6.29-1.23-20.36,3.42-41.06,2.56-11.4,3.79-17.28.35-21.42-1.84-2.22-5.55-4.57-9.24-3.82-3.3.67-5.2,3.55-6.1,4.96Z"/>
    <path class="cls-7" d="M32.45,54.15c-3.97-2.1-8.47-4.03-12.55-3.63-3.94.39-6.63,2.96-7.65,6.02-.64,1.92-.7,4.1.16,6.25,2.16,5.39,9.16,9,15.39,11.89,14.44,6.68,28.88,13.36,43.32,20.04,7.34,3.4,7.95.07,3.94-4.56s-8.19-9.15-12.65-13.51c-8.73-8.54-18.62-16.48-29.96-22.49Z"/>
    <circle class="cls-7" cx="264.89" cy="85.99" r="8.82"/>
  </g>
  <g id="Layer_25" data-name="Layer 25">
    <path class="cls-2" d="M195.95,125.83c-27.46-.84-54.91-1.68-82.37-2.52,2.38,6.14,4.72,13.1,6.75,20.81,2.24,8.52,3.7,16.44,4.65,23.52h61.52c2.31-9.64,4.85-19.51,7.62-29.6,2.5-9.11,5.08-17.97,7.71-26.57,5.14-.78,10.28-1.55,15.43-2.33"/>
    <path class="cls-4" d="M121.22,186.84c9.46-.96,19.91-1.59,31.21-1.61,11.62-.02,22.35.62,32.03,1.61.68-6.4,1.35-12.8,2.03-19.19"/>
    <circle class="cls-6" cx="131.21" cy="201.17" r="2.53"/>
    <circle class="cls-6" cx="178.56" cy="201.17" r="2.53"/>
  </g>
  <g id="Layer_24" data-name="Layer 24">
    <path class="cls-5" d="M195.95,125.83c-27.46-.84-54.91-1.68-82.37-2.52,2.38,6.14,4.72,13.1,6.75,20.81,2.24,8.52,3.7,16.44,4.64,23.52h61.52c2.31-9.64,4.85-19.51,7.62-29.6,2.5-9.11,5.08-17.97,7.71-26.57,5.14-.78,10.28-1.55,15.43-2.33"/>
    <path class="cls-5" d="M121.22,186.84c9.46-.96,19.91-1.59,31.21-1.61,11.62-.02,22.35.62,32.03,1.61.68-6.4,1.35-12.8,2.03-19.19"/>
    <circle class="cls-3" cx="131.21" cy="201.17" r="2.53"/>
    <circle class="cls-3" cx="178.56" cy="201.17" r="2.53"/>
  </g>
</svg>