<?xml version="1.0" encoding="UTF-8"?>
<svg xmlns="http://www.w3.org/2000/svg" xmlns:xlink="http://www.w3.org/1999/xlink" viewBox="0 0 350.91 188.64">
  <defs>
    <style>
      .cls-1 {
        fill: none;
      }

      .cls-2, .cls-3 {
        fill: #231f20;
      }

      .cls-4 {
        fill: #fff;
        stroke: #fff;
        stroke-width: 2px;
      }

      .cls-4, .cls-3 {
        stroke-miterlimit: 10;
      }

      .cls-3 {
        stroke: #231f20;
        stroke-width: 25px;
      }
    </style>
    <clipPath id="clippath">
      <rect class="cls-1" x="-1804.35" y="188.97" width="2302.77" height="2448.12" transform="translate(-1153.53 -60.9) rotate(-43.56)"/>
    </clipPath>
  </defs>
  <g id="Layer_6_copy" data-name="Layer 6 copy">
    <path class="cls-2" d="M57.92,167.07c5.02.55,9.3-2.86,12.69-5.66,2.53-2.09,29.61-25.67,41.26-28.42,2.95-.7,4.72-.57,5.34-.45,2.83.57,4.85,2.57,5.43,4.32.59,1.76-.3,3.2-.73,3.87-4.93,7.66-11.49,10.09-10.37,13.98.6,2.06,3.2,4.05,6.11,4.73,3.07.72,5.96-.14,6.46-.3,9.4-2.82,4.95-14.89,11.02-15.73,3.12-.43,7.84,2.26,9.03,4.85.63,1.37.48,2.58-.36,3.73-2.72,3.7-5.81,7.61-4.79,11.72,1.02,4.11,8.43,7.94,14.2,6.05,5.21-1.7,5.2-6.24,6.12-9.9.84-3.31,3-6.46,6.24-9.09.99-.8,2.17-1.59,3.76-1.84,3.83-.61,7.02,2.1,8.4,4.47,6.05,10.39,3.2,22.68,13.74,31.64,2.34,1.99,6.16,3.87,9.81,3.14,5.38-1.08,4.37-6,2.32-9.39-3.57-5.89-7.13-11.78-10.7-17.67-1.31-2.17-2.65-4.42-2.43-6.7.22-2.28,2.46-4.6,6.03-5.03,3.48-.42,7.07,1.09,9,3.01,1.93,1.92,2.61,4.2,3.41,6.39,3.09,8.43,8.68,16.56,16.39,23.84,2.7,2.55,6.08,5.17,10.79,5.85,6.26.9,12.45-2.34,13.68-6.21,1.24-3.88-1.47-7.98-5.47-11.18-4-3.2-9.21-5.7-14.03-8.43-5.38-3.03-10.32-6.37-14.74-9.95-4.46-3.61-8.57-8.3-5.92-12.4,2.29-3.54,9.25-5.21,15.37-4.46,6.12.75,11.35,3.44,15.22,6.55,2.25,1.81,4.2,3.82,7.12,5.2,2.92,1.38,7.26,1.93,9.99.53,3.71-1.9,1.91-5.93-1.79-8.01-3.7-2.08-8.65-3.01-12.72-4.8-4.07-1.78-7.32-5.19-5.04-7.83,3.26-3.76,13-1.68,17.56,1.71,4.56,3.39,8.18,7.98,15.01,8.99,7.34,1.09,14.63-3.97,12.17-8.44-2.41-4.37-10.82-6.13-18.1-6.78-6.01-.54-13.7-1.63-14.77-5.37-.71-2.49,2.45-4.82,6.23-5.62,3.77-.79,7.96-.41,11.95.05,16.36,1.92,32.39,5.22,47.51,9.79,2.82.85,5.83,1.77,8.87,1.52,5.62-.47,8.25-5.06,5.88-8.35s-8.04-5.26-13.64-6.1c-9.55-1.43-19.36-.26-29.05.12-9.69.38-20.39-.25-27.73-4.42-7.34-4.17-8.24-12.85.36-15.5,5.04-1.55,11.2-.59,16.81-1.12,5.61-.53,11.25-4.32,7.87-7.27-2.24-1.96-6.75-1.98-10.51-1.79-4.53.22-9.07.45-13.6.67-1.21.06-2.53.1-3.56-.33-2.34-.98-1.14-3.26.72-4.49,5.73-3.77,14.66-4.75,22.27-6.91,7.61-2.16,14.84-7.09,11.95-12.14-.48-.85-1.28-1.67-2.5-2.16-3.85-1.55-8.24.96-11.04,3.09-5.8,4.41-12.74,8.21-20.51,11.22-3.23,1.25-7.24,2.39-10.81,1.39-4.8-1.35-5.35-5.68-2.98-8.51,2.36-2.83,6.61-4.85,9.36-7.53,2.75-2.69,3.48-6.8-.66-8.86-3.98-1.98-9.96-.75-13.34,1.47-3.38,2.21-5.24,5.19-8.38,7.54-3.14,2.35-8.57,4.05-13.06,2.59-4.4-1.43-5.53-5.26-3.84-8.08,1.69-2.82,5.39-4.91,8.79-7.02,6.46-4.02,12.2-8.49,17.09-13.31,2.26-2.23,4.4-4.67,4.46-7.36.06-2.69-2.65-5.65-6.9-6.19-5.6-.71-9.83,2.78-12.37,5.89-4.88,5.98-8.92,12.24-12.08,18.68-1.96,4-4.85,8.8-11.54,9.3-5.93.44-11.25-3.22-12.22-6.94-.98-3.72,1.16-7.38,3.25-10.84,2.59-4.27,5.17-8.53,7.76-12.8,1.03-1.7,2.07-3.47,1.76-5.3-.31-1.83-2.43-3.73-5.36-3.94-3.64-.26-6.23,2.02-7.43,4.14-3.5,6.15-2.22,13.09-4.87,19.42-2.65,6.33-12.25,12.48-22.39,10.36-6.09-1.28-10.06-5.19-11.42-9.1-1.35-3.91-.62-7.92-.34-11.87.4-5.7-.17-11.44-1.69-17.11-.34-1.28-.88-2.71-2.63-3.45-2.66-1.13-6.39.23-7.36,2.09-.97,1.85-.1,3.9.63,5.84,3.15,8.45,3.37,17.25.63,25.61-.78,2.38-2.33,5.08-6.07,5.71-5.35.9-9.65-2.98-11.98-6.22-4.09-5.69-2.86-8.39-8.45-11.73-1.08-.65-4.3-2.52-8.74-2.59-3.61-.05-7.95,1.09-9.08,3.23-1.28,2.42,2.05,5.19,7.03,9.23,7.43,6.02,9.56,6.28,13.85,9.91,4.33,3.67,7.66,9.52,1.79,11.95-4.89,2.02-11.55-.51-15.74-3.25-4.2-2.74-8.78-6.12-14.72-6-5.14.1-9.27,3.45-8.16,6.62,1,2.83,5.14,4.78,7.97,7.12,2.83,2.34,3.85,6.3-.22,7.55-4.56,1.4-9.13-2.05-12.16-4.73-5.99-5.28-14.64-9.4-24.32-11.59-3.63-.82-7.9-1.33-11.01-.03-2.95,1.24-3.87,3.76-3.38,6.01,1.08,5.01,7.77,9.07,15.15,11.28,7.37,2.21,15.52,2.97,23.41,4.2,3.52.55,7.18,1.25,9.76,2.88,2.58,1.62,3.59,4.44,1.25,6.09-2.74,1.93-7.83,1.2-11.84.31-5.52-1.22-11.45-2.49-17-1.58-5.55.91-9.89,5.03-6.88,8.2,1.66,1.75,4.9,2.63,7.98,3.25,4.53.91,9.21,1.49,13.91,1.74,5.59.3,13.22,1.27,13.33,4.77.12,3.61-7.82,4.27-13.55,4.57-4.12.22-8.16.86-11.9,1.89-2.49.69-5.1,1.77-5.43,3.47-.66,3.39,7.35,4.65,12.67,3.9,5.32-.75,12.37-1.62,15.18,1.4,2.28,2.45-.72,5.52-4.59,6.82-3.87,1.29-8.49,1.54-12.43,2.75-3.94,1.21-7.25,4.08-5.37,6.65,2.74,3.75,11.75,2.38,16.83-.03,5.08-2.41,11.89-5.37,17.28-2.97,2.83,1.26,3.16,4.72,2.7,6.97-.53,2.59-3,8.36-36.74,23.57-4.35,1.96-10.02,4.44-9.32,7.44.47,2.01,3.73,3.98,6.97,4.34Z"/>
    <path class="cls-2" d="M135.96,178.52c4.01-1.02,8.71.21,10.5,2.75s0,5.44-4.01,6.46-8.71-.21-10.5-2.75,0-5.44,4.01-6.46Z"/>
    <path class="cls-2" d="M67.18,37.96c3.15-.81,6.85.16,8.26,2.17s0,4.28-3.15,5.09-6.85-.16-8.26-2.17,0-4.28,3.15-5.09Z"/>
    <path class="cls-2" d="M308.96,157.92c21.16-.29,37.89,2.38,40.93,7.37,2.25,3.69.07,6.16.07,6.16-1.72,1.96-5.1,2.55-6.29,2.76-5,.87-9.69-.31-12.25-1.13-11.19-3.54-18.91-11.18-22.46-15.17Z"/>
    <path class="cls-2" d="M1.49,67.49c2.55-1.54,10.93-1.55,37.69,6.06-7.31.58-20,1.32-30.67.25-3.09-.31-6.59-.83-7.93-2.35-1.17-1.33-.43-3.16.9-3.97Z"/>
  </g>
  <g id="Layer_5_copy" data-name="Layer 5 copy">
    <g>
      <path class="cls-3" d="M76.71,156.02l-11.18,3.72c-2.35.78-4.58.92-6.68.41-2.12-.51-3.46-1.55-4-3.1l-13.88-39.68c-.59-1.69-.14-3.34,1.34-4.93,1.48-1.58,3.51-2.63,6.1-3.16l12.26-2.48c8.39-1.7,15.48-2.06,21.36-1.16,5.71.87,10.27,2.8,13.76,5.74,3.42,2.89,5.78,6.64,7.11,11.26.98,3.4,1.2,6.71.68,9.94-.52,3.24-1.89,6.33-4.13,9.3-4.69,5.92-12.16,10.62-22.74,14.13ZM72.3,145.63c4.6-1.39,8.22-2.96,10.92-4.7,2.67-1.72,4.41-3.74,5.26-6.08.85-2.33.78-5.11-.2-8.35-.88-2.91-2.25-5.15-4.1-6.72-1.87-1.59-4.44-2.5-7.72-2.72-3.34-.22-7.63.27-12.95,1.5l-2.44.57,8.96,27.18,2.26-.69Z"/>
      <path class="cls-3" d="M144.33,133.54c-1.94.65-3.72.46-5.33-.56l-13.2-9.59-.29.08,2.75,10.39c.34,1.27.04,2.55-.89,3.84-.94,1.3-2.26,2.23-3.99,2.8s-3.32.6-4.82.09c-1.51-.52-2.46-1.43-2.82-2.75l-9.65-34.63c-.41-1.46-.06-2.85,1.03-4.18,1.09-1.31,2.59-2.16,4.5-2.55l9.14-1.85c5.76-1.17,10.46-.81,14.15,1.02,3.61,1.78,5.9,4.78,6.92,8.99,1.25,5.16-.1,9.52-4.12,13.17l9.65,7.36c.72.61,1.18,1.3,1.36,2.07.28,1.17.03,2.37-.77,3.61-.8,1.25-2.01,2.14-3.63,2.68ZM124.68,113.35c2.5-.64,4.13-1.37,4.92-2.17.79-.81.97-2.03.55-3.68s-1.14-2.62-2.18-3-2.83-.29-5.36.29l-1.92.45,2.27,8.57,1.73-.44Z"/>
      <path class="cls-3" d="M160.98,128c-1.37.46-2.65.43-3.84-.08-1.2-.51-1.94-1.36-2.22-2.55l-7.34-31.32c-.3-1.27-.02-2.47.84-3.6.85-1.12,2.01-1.83,3.48-2.13s2.79-.1,4.01.58c1.21.67,1.95,1.63,2.23,2.86l6.79,30.43c.26,1.15,0,2.3-.76,3.43-.77,1.14-1.83,1.93-3.19,2.39Z"/>
      <path class="cls-3" d="M197.39,115.9c-1,.33-1.94.2-2.79-.39-9.97-10.86-16.29-15.82-18.39-14.23-1.69,1.29-.54,6.79,3.37,16.28.23,1.11,0,2.19-.7,3.24-.7,1.06-1.66,1.8-2.89,2.21s-2.4.38-3.48-.12c-1.08-.5-1.75-1.32-1.99-2.45l-6.5-29.92c-.27-1.23,0-2.38.78-3.45.78-1.06,1.84-1.73,3.17-2,1.55-.31,2.97.03,4.26,1.02,9.9,11.29,15.48,15.94,17.24,14.58,1.41-1.09.46-6.05-2.92-15.08-.22-1.15,0-2.21.67-3.18.67-.96,1.57-1.56,2.72-1.79s2.17-.03,3.11.59c.93.62,1.5,1.48,1.7,2.6l5.18,27.99c.16.85-.01,1.67-.51,2.46-.5.8-1.18,1.34-2.06,1.63Z"/>
      <path class="cls-3" d="M219.8,109.2c-2,.67-3.97.88-5.93.62-1.99-.27-3.84-1-5.55-2.22-3.41-2.6-5.59-6.33-6.46-11.17s-.2-9.5,2.03-13.75c1.18-2.08,2.66-3.79,4.45-5.13,1.76-1.32,3.71-2.19,5.84-2.61s4.12-.36,6.03.18c1.89.53,3.58,1.48,5.1,2.85,2.92,2.78,4.68,6.35,5.34,10.75s.06,8.5-1.82,12.42c-.97,1.95-2.22,3.61-3.75,4.99-1.55,1.39-3.3,2.42-5.27,3.08ZM218.61,101.97c2.11-.65,3.68-2.06,4.74-4.23,1.05-2.16,1.36-4.59.93-7.33-.43-2.74-1.46-4.84-3.1-6.32-1.67-1.5-3.59-2.01-5.76-1.51s-3.91,1.88-5.07,4.11c-1.17,2.25-1.5,4.84-1.01,7.72s1.64,5.04,3.42,6.46c1.75,1.4,3.7,1.76,5.84,1.1Z"/>
      <path class="cls-3" d="M255.04,96.73c-.68.23-1.3.12-1.87-.32-.57-.44-.91-1.09-1.02-1.95-.08-2.18-.41-9.83-1.28-9.89-.86-.06-1.83,7.46-2.1,9.69-.32,1.18-.91,1.9-1.77,2.18s-1.61-.03-2.22-.93c-.9-2.03-3.83-8.5-4.67-7.98-.86.54.9,8.03,1.45,10.3.13.9-.04,1.75-.49,2.55-.45.81-1.06,1.34-1.84,1.6s-1.5.16-2.15-.29c-.65-.46-1.05-1.15-1.18-2.06l-3.42-23.32c-.17-1.15.04-2.21.61-3.16s1.35-1.53,2.33-1.73c.69-.14,1.35-.05,1.98.27.62.32,1.13.82,1.52,1.5,1.15,7.76,4.59,12.18,6.54,11.65,1.91-.51,3.85-6.17,2.93-13.67.17-.77.48-1.41.94-1.93.46-.52.99-.84,1.6-.96.84-.17,1.6.06,2.29.69.68.62,1.09,1.46,1.22,2.52l2.66,21.41c.1.84-.04,1.64-.44,2.38-.4.75-.94,1.24-1.61,1.46Z"/>
      <path class="cls-3" d="M262.61,94.22c-.64.21-1.22.1-1.75-.34-.53-.44-.85-1.08-.95-1.91l-2.64-21.73c-.11-.87.04-1.67.45-2.39.4-.72.94-1.15,1.6-1.28s1.26.06,1.8.58c.53.51.85,1.2.95,2.05l2.48,21.29c.1.82-.05,1.59-.42,2.31-.38.73-.88,1.2-1.52,1.41Z"/>
      <path class="cls-3" d="M280.18,88.38c-.5.17-.96,0-1.37-.48-4.62-8.33-7.54-12.18-8.57-11.19-.82.8-.39,4.7,1.27,11.59.09.79-.05,1.53-.4,2.22-.35.69-.82,1.14-1.42,1.34s-1.14.09-1.63-.34c-.5-.42-.79-1.04-.88-1.85l-2.39-21.04c-.1-.86.05-1.63.43-2.33.38-.69.89-1.1,1.51-1.23.73-.15,1.38.15,1.96.9,4.45,8.35,7.04,11.94,7.92,11.08.71-.69.34-4.24-1.11-10.77-.08-.82.05-1.55.39-2.2.34-.65.79-1.03,1.35-1.14s1.06.07,1.5.55c.44.48.7,1.12.78,1.92l2,20.22c.06.62-.04,1.19-.3,1.73-.26.53-.61.87-1.05,1.02Z"/>
      <path class="cls-3" d="M291.65,85.11c-1.04.35-2.07.37-3.06.04-1.01-.33-1.94-.99-2.78-1.98-1.67-2.09-2.68-4.9-3.02-8.42s.09-6.79,1.28-9.72c.63-1.44,1.41-2.59,2.33-3.47.92-.87,1.92-1.42,3.01-1.64s2.12-.09,3.1.38c.97.46,1.83,1.23,2.6,2.3,1.48,2.17,2.34,4.88,2.61,8.15s-.13,6.27-1.2,9.04c-.55,1.37-1.24,2.51-2.07,3.42-.84.92-1.77,1.55-2.81,1.9ZM291.17,79.76c1.1-.34,1.95-1.27,2.54-2.79.59-1.52.8-3.28.63-5.31s-.67-3.62-1.5-4.78c-.84-1.17-1.82-1.63-2.94-1.38s-2.03,1.17-2.66,2.72c-.64,1.56-.86,3.4-.66,5.51s.73,3.73,1.61,4.86c.87,1.12,1.86,1.51,2.98,1.16Z"/>
      <path class="cls-4" d="M76.71,156.02l-11.18,3.72c-2.35.78-4.58.92-6.68.41-2.12-.51-3.46-1.55-4-3.1l-13.88-39.68c-.59-1.69-.14-3.34,1.34-4.93,1.48-1.58,3.51-2.63,6.1-3.16l12.26-2.48c8.39-1.7,15.48-2.06,21.36-1.16,5.71.87,10.27,2.8,13.76,5.74,3.42,2.89,5.78,6.64,7.11,11.26.98,3.4,1.2,6.71.68,9.94-.52,3.24-1.89,6.33-4.13,9.3-4.69,5.92-12.16,10.62-22.74,14.13ZM72.3,145.63c4.6-1.39,8.22-2.96,10.92-4.7,2.67-1.72,4.41-3.74,5.26-6.08.85-2.33.78-5.11-.2-8.35-.88-2.91-2.25-5.15-4.1-6.72-1.87-1.59-4.44-2.5-7.72-2.72-3.34-.22-7.63.27-12.95,1.5l-2.44.57,8.96,27.18,2.26-.69Z"/>
      <path class="cls-4" d="M144.33,133.54c-1.94.65-3.72.46-5.33-.56l-13.2-9.59-.29.08,2.75,10.39c.34,1.27.04,2.55-.89,3.84-.94,1.3-2.26,2.23-3.99,2.8s-3.32.6-4.82.09c-1.51-.52-2.46-1.43-2.82-2.75l-9.65-34.63c-.41-1.46-.06-2.85,1.03-4.18,1.09-1.31,2.59-2.16,4.5-2.55l9.14-1.85c5.76-1.17,10.46-.81,14.15,1.02,3.61,1.78,5.9,4.78,6.92,8.99,1.25,5.16-.1,9.52-4.12,13.17l9.65,7.36c.72.61,1.18,1.3,1.36,2.07.28,1.17.03,2.37-.77,3.61-.8,1.25-2.01,2.14-3.63,2.68ZM124.68,113.35c2.5-.64,4.13-1.37,4.92-2.17.79-.81.97-2.03.55-3.68s-1.14-2.62-2.18-3-2.83-.29-5.36.29l-1.92.45,2.27,8.57,1.73-.44Z"/>
      <path class="cls-4" d="M160.98,128c-1.37.46-2.65.43-3.84-.08-1.2-.51-1.94-1.36-2.22-2.55l-7.34-31.32c-.3-1.27-.02-2.47.84-3.6.85-1.12,2.01-1.83,3.48-2.13s2.79-.1,4.01.58c1.21.67,1.95,1.63,2.23,2.86l6.79,30.43c.26,1.15,0,2.3-.76,3.43-.77,1.14-1.83,1.93-3.19,2.39Z"/>
      <path class="cls-4" d="M197.39,115.9c-1,.33-1.94.2-2.79-.39l-18.39-14.23,3.37,16.28c.23,1.11,0,2.19-.7,3.24-.7,1.06-1.66,1.8-2.89,2.21s-2.4.38-3.48-.12c-1.08-.5-1.75-1.32-1.99-2.45l-6.5-29.92c-.27-1.23,0-2.38.78-3.45.78-1.06,1.84-1.73,3.17-2,1.55-.31,2.97.03,4.26,1.02l17.24,14.58-2.92-15.08c-.22-1.15,0-2.21.67-3.18.67-.96,1.57-1.56,2.72-1.79s2.17-.03,3.11.59c.93.62,1.5,1.48,1.7,2.6l5.18,27.99c.16.85-.01,1.67-.51,2.46-.5.8-1.18,1.34-2.06,1.63Z"/>
      <path class="cls-4" d="M219.8,109.2c-2,.67-3.97.88-5.93.62-1.99-.27-3.84-1-5.55-2.22-3.41-2.6-5.59-6.33-6.46-11.17s-.2-9.5,2.03-13.75c1.18-2.08,2.66-3.79,4.45-5.13,1.76-1.32,3.71-2.19,5.84-2.61s4.12-.36,6.03.18c1.89.53,3.58,1.48,5.1,2.85,2.92,2.78,4.68,6.35,5.34,10.75s.06,8.5-1.82,12.42c-.97,1.95-2.22,3.61-3.75,4.99-1.55,1.39-3.3,2.42-5.27,3.08ZM218.61,101.97c2.11-.65,3.68-2.06,4.74-4.23,1.05-2.16,1.36-4.59.93-7.33-.43-2.74-1.46-4.84-3.1-6.32-1.67-1.5-3.59-2.01-5.76-1.51s-3.91,1.88-5.07,4.11c-1.17,2.25-1.5,4.84-1.01,7.72s1.64,5.04,3.42,6.46c1.75,1.4,3.7,1.76,5.84,1.1Z"/>
      <path class="cls-4" d="M255.04,96.73c-.68.23-1.3.12-1.87-.32-.57-.44-.91-1.09-1.02-1.95l-1.28-9.89-2.1,9.69c-.32,1.18-.91,1.9-1.77,2.18s-1.61-.03-2.22-.93l-4.67-7.98,1.45,10.3c.13.9-.04,1.75-.49,2.55-.45.81-1.06,1.34-1.84,1.6s-1.5.16-2.15-.29c-.65-.46-1.05-1.15-1.18-2.06l-3.42-23.32c-.17-1.15.04-2.21.61-3.16s1.35-1.53,2.33-1.73c.69-.14,1.35-.05,1.98.27.62.32,1.13.82,1.52,1.5l6.54,11.65,2.93-13.67c.17-.77.48-1.41.94-1.93.46-.52.99-.84,1.6-.96.84-.17,1.6.06,2.29.69.68.62,1.09,1.46,1.22,2.52l2.66,21.41c.1.84-.04,1.64-.44,2.38-.4.75-.94,1.24-1.61,1.46Z"/>
      <path class="cls-4" d="M262.61,94.22c-.64.21-1.22.1-1.75-.34-.53-.44-.85-1.08-.95-1.91l-2.64-21.73c-.11-.87.04-1.67.45-2.39.4-.72.94-1.15,1.6-1.28s1.26.06,1.8.58c.53.51.85,1.2.95,2.05l2.48,21.29c.1.82-.05,1.59-.42,2.31-.38.73-.88,1.2-1.52,1.41Z"/>
      <path class="cls-4" d="M280.18,88.38c-.5.17-.96,0-1.37-.48l-8.57-11.19,1.27,11.59c.09.79-.05,1.53-.4,2.22-.35.69-.82,1.14-1.42,1.34s-1.14.09-1.63-.34c-.5-.42-.79-1.04-.88-1.85l-2.39-21.04c-.1-.86.05-1.63.43-2.33.38-.69.89-1.1,1.51-1.23.73-.15,1.38.15,1.96.9l7.92,11.08-1.11-10.77c-.08-.82.05-1.55.39-2.2.34-.65.79-1.03,1.35-1.14s1.06.07,1.5.55c.44.48.7,1.12.78,1.92l2,20.22c.06.62-.04,1.19-.3,1.73-.26.53-.61.87-1.05,1.02Z"/>
      <path class="cls-4" d="M291.65,85.11c-1.04.35-2.07.37-3.06.04-1.01-.33-1.94-.99-2.78-1.98-1.67-2.09-2.68-4.9-3.02-8.42s.09-6.79,1.28-9.72c.63-1.44,1.41-2.59,2.33-3.47.92-.87,1.92-1.42,3.01-1.64s2.12-.09,3.1.38c.97.46,1.83,1.23,2.6,2.3,1.48,2.17,2.34,4.88,2.61,8.15s-.13,6.27-1.2,9.04c-.55,1.37-1.24,2.51-2.07,3.42-.84.92-1.77,1.55-2.81,1.9ZM291.17,79.76c1.1-.34,1.95-1.27,2.54-2.79.59-1.52.8-3.28.63-5.31s-.67-3.62-1.5-4.78c-.84-1.17-1.82-1.63-2.94-1.38s-2.03,1.17-2.66,2.72c-.64,1.56-.86,3.4-.66,5.51s.73,3.73,1.61,4.86c.87,1.12,1.86,1.51,2.98,1.16Z"/>
    </g>
  </g>
</svg>